<svg width="22" height="24" viewBox="0 0 22 24" fill="none" xmlns="http://www.w3.org/2000/svg">
<path d="M11 0C13.8111 0 16.2556 2.4 16.2556 5.04C16.1456 8.124 13.86 9.396 13.4933 9.6C14.7156 9 16.5 9 16.5 9C19.5556 9 22 11.16 22 14.16C22 17.16 19.5556 19.2 16.5 19.2C16.5 19.2 14.6667 19.2 12.2222 18C12.2222 18 11.8556 20.4 14.6667 24H7.33333C10.1444 20.4 9.77778 18 9.77778 18C7.33333 19.2 5.5 19.2 5.5 19.2C2.44444 19.2 0 17.16 0 14.16C0 11.16 2.44444 9 5.5 9C5.5 9 7.28444 9 8.50667 9.6C8.14 9.396 5.85444 8.124 5.74444 5.04C5.74444 2.4 8.18889 0 11 0Z" fill="black"/>
</svg>
