<?xml version="1.0" encoding="UTF-8"?><svg xmlns="http://www.w3.org/2000/svg" xmlns:xlink="http://www.w3.org/1999/xlink" version="1.1" x="0px" y="0px" viewBox="0 0 48 48" xml:space="preserve"><style type="text/css">.st0{fill:#FFD4C3;stroke:#504B46;stroke-linecap:round;stroke-linejoin:round;stroke-miterlimit:10;} .st1{fill:#FFC258;} .st2{fill:#4F4B45;} .st3{fill:#FABFA5;} .st4{fill:none;stroke:#504B46;stroke-linecap:round;stroke-linejoin:round;stroke-miterlimit:10;} .Graphic_x0020_Style{opacity:0.15;fill:#45413C;} .st5{fill:#FFE500;} .st6{fill:#EBCB00;} .st7{fill:none;stroke:#45413C;stroke-linecap:round;stroke-linejoin:round;stroke-miterlimit:10;} .st8{fill:#FFF48C;} .st9{fill:#FFB0CA;stroke:#45413C;stroke-linecap:round;stroke-linejoin:round;stroke-miterlimit:10;} .st10{fill:#FF87AF;stroke:#45413C;stroke-linecap:round;stroke-linejoin:round;stroke-miterlimit:10;} .st11{fill:#FFFFFF;stroke:#45413C;stroke-linecap:round;stroke-linejoin:round;stroke-miterlimit:10;} .st12{opacity:0.15;fill:#45413C;} .st13{fill:#FFAA54;} .st14{fill:#FFF48C;stroke:#45413C;stroke-linecap:round;stroke-linejoin:round;stroke-miterlimit:10;} .st15{fill:#FF6242;} .st16{fill:#FF866E;} .st17{fill:#4AEFF7;stroke:#45413C;stroke-linecap:round;stroke-linejoin:round;stroke-miterlimit:10;} .st18{fill:#FFFACF;} .st19{fill:#FFFFFF;} .st20{fill:none;stroke:#45413C;stroke-linejoin:round;stroke-miterlimit:10;} .st21{fill:#FF866E;stroke:#45413C;stroke-linecap:round;stroke-linejoin:round;stroke-miterlimit:10;} .st22{fill:#DABFF5;stroke:#45413C;stroke-linejoin:round;stroke-miterlimit:10;} .st23{fill:#EDDBFF;} .st24{fill:#BF8256;stroke:#45413C;stroke-miterlimit:10;} .st25{fill:#DEA47A;} .st26{fill:#45413C;stroke:#45413C;stroke-linecap:round;stroke-linejoin:round;stroke-miterlimit:10;} .st27{fill:none;stroke:#45413C;stroke-miterlimit:10;} .st28{fill:#915E3A;} .st29{fill:#E8F4FA;} .st30{fill:#525252;stroke:#45413C;stroke-linecap:round;stroke-linejoin:round;stroke-miterlimit:10;} .st31{fill:#87898C;} .st32{fill:#656769;} .st33{fill:none;stroke:#45413C;stroke-linecap:round;stroke-miterlimit:10;} .st34{fill:#00DBA8;} .st35{fill:#00AD85;} .st36{fill:#BF8DF2;} .st37{fill:#DABFF5;} .st38{fill:#00F5BC;} .st39{fill:#4CF4FC;stroke:#45413C;stroke-linecap:round;stroke-linejoin:round;stroke-miterlimit:10;} .st40{fill:#E04122;} .st41{fill:#00B8F0;} .st42{fill:#4ACFFF;} .st43{fill:#B89558;stroke:#45413C;stroke-linecap:round;stroke-linejoin:round;stroke-miterlimit:10;} .st44{fill:#FF6242;stroke:#45413C;stroke-linecap:round;stroke-linejoin:round;stroke-miterlimit:10;} .st45{fill:#009FD9;} .st46{fill:#FFFFFF;stroke:#45413C;stroke-linejoin:round;stroke-miterlimit:10;} .st47{fill:none;stroke:#48CF3E;stroke-linecap:round;stroke-linejoin:round;stroke-miterlimit:10;} .st48{fill:none;stroke:#FF4064;stroke-linecap:round;stroke-linejoin:round;stroke-miterlimit:10;} .st49{fill:none;stroke:#FFB700;stroke-linecap:round;stroke-linejoin:round;stroke-miterlimit:10;} .st50{fill:none;stroke:#00AED9;stroke-linecap:round;stroke-linejoin:round;stroke-miterlimit:10;} .st51{fill:#F0F0F0;} .st52{fill:#8CFFE4;stroke:#45413C;stroke-linecap:round;stroke-linejoin:round;stroke-miterlimit:10;} .st53{fill:#E5FFF9;} .st54{fill:#6DD627;} .st55{fill:#46B000;} .st56{fill:#9CEB60;} .st57{fill:#E0E0E0;} .st58{fill:#DAEDF7;} .st59{fill:#C0DCEB;} .st60{fill:#ADC4D9;} .st61{fill:#ADC4D9;stroke:#45413C;stroke-linecap:round;stroke-linejoin:round;stroke-miterlimit:10;} .st62{fill:#00DFEB;stroke:#45413C;stroke-linecap:round;stroke-linejoin:round;stroke-miterlimit:10;} .st63{fill:#627B8C;stroke:#45413C;stroke-linecap:round;stroke-linejoin:round;stroke-miterlimit:10;} .st64{fill:#FF8A14;} .st65{fill:#FF8A14;stroke:#45413C;stroke-linecap:round;stroke-linejoin:round;stroke-miterlimit:10;} .st66{fill:#6DD627;stroke:#45413C;stroke-linecap:round;stroke-linejoin:round;stroke-miterlimit:10;} .st67{fill:#45413C;} .st68{fill:#8CA4B8;} .st69{fill:#00DBA8;stroke:#45413C;stroke-linecap:round;stroke-linejoin:round;stroke-miterlimit:10;} .st70{fill:#00B8F0;stroke:#45413C;stroke-linecap:round;stroke-linejoin:round;stroke-miterlimit:10;} .st71{fill:#FFE500;stroke:#45413C;stroke-linecap:round;stroke-linejoin:round;stroke-miterlimit:10;} .st72{fill:#F0F0F0;stroke:#45413C;stroke-linecap:round;stroke-linejoin:round;stroke-miterlimit:10;} .st73{fill:#525252;} .st74{fill:#E5F8FF;} .st75{fill:none;stroke:#FF6242;stroke-linecap:round;stroke-linejoin:round;stroke-miterlimit:10;} .st76{fill:url(#XMLID_10_);} .st77{fill:url(#XMLID_11_);} .st78{fill:url(#XMLID_12_);} .st79{fill:url(#XMLID_13_);} .st80{fill:#E5FEFF;stroke:#45413C;stroke-linecap:round;stroke-linejoin:round;stroke-miterlimit:10;} .st81{fill:#EBCB00;stroke:#45413C;stroke-linecap:round;stroke-linejoin:round;stroke-miterlimit:10;} .st82{fill:#BDBEC0;stroke:#45413C;stroke-linecap:round;stroke-linejoin:round;stroke-miterlimit:10;} .st83{fill:#F0D5A8;} .st84{fill:#DEBB7E;} .st85{fill:#B89558;} .st86{fill:#FFFCE5;} .st87{fill:#FF87AF;} .st88{fill:#4ACFFF;stroke:#45413C;stroke-linecap:round;stroke-linejoin:round;stroke-miterlimit:10;} .st89{fill:#BDBEC0;} .st90{fill:#FFDA8F;} .st91{fill:#FFBE3D;} .st92{fill:#FFE9BD;} .st93{fill:#FF6196;} .st94{fill:#E0366F;} .st95{fill:#E0366F;stroke:#45413C;stroke-linecap:round;stroke-linejoin:round;stroke-miterlimit:10;} .st96{fill:#45413C;stroke:#45413C;stroke-miterlimit:10;}</style><symbol id="New_Symbol_14" viewBox="-6.5 -6.5 13 13"><path class="st0" d="M0-6c2.2 0 4.1 1.5 4.7 3.5C6.3-2.5 6.4 0 5 0v1c0 2.8-2.2 5-5 5s-5-2.2-5-5V0c-1.4 0-1.3-2.5.2-2.5C-4.1-4.5-2.2-6 0-6z" fill="#FFD4C3" stroke="#504B46" stroke-linecap="round" stroke-linejoin="round" stroke-miterlimit="10"/><circle class="st1" cx="-1.6" cy="-0.1" r="0.1" fill="#FFC258"/><path class="st2" d="M-1.6.5c-.3 0-.6-.3-.6-.6s.2-.7.6-.7c.3 0 .6.3.6.7s-.3.6-.6.6z" fill="#4F4B45"/><circle class="st1" cx="1.6" cy="-0.1" r="0.1" fill="#FFC258"/><path class="st2" d="M1.6.5C1.3.5 1 .2 1-.1s.3-.6.6-.6.6.3.6.6-.2.6-.6.6z" fill="#4F4B45"/><circle class="st3" cx="-3" cy="-1.5" r="0.5" fill="#FABFA5"/><circle class="st3" cx="3" cy="-1.5" r="0.5" fill="#FABFA5"/><path class="st4" d="M-1.2-3c.8-.5 1.7-.5 2.5 0" fill="none" stroke="#504B46" stroke-linecap="round" stroke-linejoin="round" stroke-miterlimit="10"/></symbol><g id="Icons"><g id="XMLID_3_"><circle id="XMLID_7563_" class="st5" cx="24" cy="20.2" r="15.4" fill="#FFE500"/><path id="XMLID_7560_" class="st6" d="M24 4.8c-8.5 0-15.4 6.9-15.4 15.4S15.5 35.6 24 35.6s15.4-6.9 15.4-15.4S32.5 4.8 24 4.8zm0 28.4c-7.8 0-14-6.3-14-14 0-7.8 6.3-14 14-14s14 6.3 14 14c0 7.8-6.2 14-14 14z" fill="#EBCB00"/><ellipse id="XMLID_7559_" class="st8" cx="24" cy="7.9" rx="4.6" ry="1.2" fill="#FFF48C"/><ellipse id="XMLID_7558_" class="st12" cx="24" cy="41.7" rx="12.3" ry="1.5" fill="#45413C" opacity="0.15"/><circle id="XMLID_7557_" class="st7" cx="24" cy="20.2" r="15.4" fill="none" stroke="#45413C" stroke-linecap="round" stroke-linejoin="round" stroke-miterlimit="10"/><ellipse id="XMLID_7556_" class="st13" cx="33.2" cy="24" rx="1.9" ry="1.2" fill="#FFAA54"/><ellipse id="XMLID_7555_" class="st13" cx="14.8" cy="24" rx="1.9" ry="1.2" fill="#FFAA54"/><path id="XMLID_7554_" class="st7" d="M13.2 21.1c0-.7.6-1.3 1.3-1.3.7 0 1.3.6 1.3 1.3" fill="none" stroke="#45413C" stroke-linecap="round" stroke-linejoin="round" stroke-miterlimit="10"/><path id="XMLID_7553_" class="st7" d="M32.1 21.1c0-.7.6-1.3 1.3-1.3s1.3.6 1.3 1.3" fill="none" stroke="#45413C" stroke-linecap="round" stroke-linejoin="round" stroke-miterlimit="10"/><g id="XMLID_7550_"><path id="XMLID_7552_" class="st9" d="M19.3 26.3c-.2 0-.4.1-.6.3-.1.2-.2.4-.2.6.4 2.6 2.7 4.5 5.4 4.5s5-1.9 5.4-4.5c0-.2 0-.4-.2-.6-.1-.2-.3-.3-.6-.3h-9.2z" fill="#FFB0CA" stroke="#45413C" stroke-linecap="round" stroke-linejoin="round" stroke-miterlimit="10"/><path id="XMLID_7551_" class="st10" d="M28.3 29.7c-1.1-.6-2.6-1-4.3-1-1.7 0-3.2.4-4.3 1 1 1.3 2.5 2 4.3 2s3.3-.8 4.3-2z" fill="#FF87AF" stroke="#45413C" stroke-linecap="round" stroke-linejoin="round" stroke-miterlimit="10"/></g><g id="XMLID_7537_"><g id="XMLID_7546_"><path id="XMLID_7549_" class="st41" d="M44.7 27.7c-3.3 3.3-5.7-3.3-9-4 4.6-3.3 12.3.7 9 4z" fill="#00B8F0"/><path id="XMLID_7548_" class="st42" d="M35.8 23.8c.1 0 .2 0 .2.1 4.5-1.6 10.1 1.8 7.4 4.7.4-.1.9-.4 1.3-.8 3.3-3.4-4.4-7.4-8.9-4z" fill="#4ACFFF"/><path id="XMLID_7547_" class="st7" d="M44.7 27.7c-3.3 3.3-5.7-3.3-9-4 4.6-3.3 12.3.7 9 4z" fill="none" stroke="#45413C" stroke-linecap="round" stroke-linejoin="round" stroke-miterlimit="10"/></g><g id="XMLID_7542_"><path id="XMLID_7545_" class="st41" d="M41.5 15.9c1.1 2.9-3.6 2.5-4.8 4.2-.8-3.6 3.8-7 4.8-4.2z" fill="#00B8F0"/><path id="XMLID_7544_" class="st42" d="M36.7 20.2l.1-.1c.3-3.1 3.9-5.5 4.9-3.1 0-.3 0-.6-.1-1-1.1-2.9-5.7.5-4.9 4.2z" fill="#4ACFFF"/><path id="XMLID_7543_" class="st7" d="M41.5 15.9c1.1 2.9-3.6 2.5-4.8 4.2-.8-3.6 3.8-7 4.8-4.2z" fill="none" stroke="#45413C" stroke-linecap="round" stroke-linejoin="round" stroke-miterlimit="10"/></g><g id="XMLID_7538_"><path id="XMLID_7541_" class="st41" d="M47 20.3c-.8 2-3-.4-4.5-.1 1.3-2.3 5.3-1.9 4.5.1z" fill="#00B8F0"/><path id="XMLID_7540_" class="st42" d="M42.4 20.2h.1c1.6-1.5 4.7-1 4 .7.2-.1.3-.3.4-.6.9-2-3.1-2.4-4.5-.1z" fill="#4ACFFF"/><path id="XMLID_7539_" class="st7" d="M47 20.3c-.8 2-3-.4-4.5-.1 1.3-2.3 5.3-1.9 4.5.1z" fill="none" stroke="#45413C" stroke-linecap="round" stroke-linejoin="round" stroke-miterlimit="10"/></g></g><g id="XMLID_7524_"><g id="XMLID_7533_"><path id="XMLID_7536_" class="st41" d="M3.3 27.7c3.3 3.3 5.7-3.3 9-4-4.6-3.3-12.3.7-9 4z" fill="#00B8F0"/><path id="XMLID_7535_" class="st42" d="M12.2 23.8c-.1 0-.2 0-.2.1-4.5-1.6-10.1 1.8-7.4 4.7-.4-.1-.9-.4-1.3-.8-3.3-3.4 4.4-7.4 8.9-4z" fill="#4ACFFF"/><path id="XMLID_7534_" class="st7" d="M3.3 27.7c3.3 3.3 5.7-3.3 9-4-4.6-3.3-12.3.7-9 4z" fill="none" stroke="#45413C" stroke-linecap="round" stroke-linejoin="round" stroke-miterlimit="10"/></g><g id="XMLID_7529_"><path id="XMLID_7532_" class="st41" d="M6.5 15.9c-1.1 2.9 3.6 2.5 4.8 4.2.8-3.6-3.8-7-4.8-4.2z" fill="#00B8F0"/><path id="XMLID_7531_" class="st42" d="M11.3 20.2l-.1-.1c-.3-3.1-3.9-5.5-4.9-3.1 0-.3 0-.6.1-1 1.1-2.9 5.7.5 4.9 4.2z" fill="#4ACFFF"/><path id="XMLID_7530_" class="st7" d="M6.5 15.9c-1.1 2.9 3.6 2.5 4.8 4.2.8-3.6-3.8-7-4.8-4.2z" fill="none" stroke="#45413C" stroke-linecap="round" stroke-linejoin="round" stroke-miterlimit="10"/></g><g id="XMLID_7525_"><path id="XMLID_7528_" class="st41" d="M1 20.3c.8 2 3-.4 4.5-.1-1.3-2.3-5.3-1.9-4.5.1z" fill="#00B8F0"/><path id="XMLID_7527_" class="st42" d="M5.6 20.2h-.1c-1.6-1.5-4.7-1-4 .7-.2-.1-.3-.3-.4-.6-.9-2 3.1-2.4 4.5-.1z" fill="#4ACFFF"/><path id="XMLID_7526_" class="st7" d="M1 20.3c.8 2 3-.4 4.5-.1-1.3-2.3-5.3-1.9-4.5.1z" fill="none" stroke="#45413C" stroke-linecap="round" stroke-linejoin="round" stroke-miterlimit="10"/></g></g></g></g></svg>