<svg width="132" height="208" viewBox="0 0 132 208" fill="none" xmlns="http://www.w3.org/2000/svg">
<rect width="132" height="208" rx="8" fill="#DA6767"/>
<rect x="1.5" y="1.5" width="129" height="205" rx="6.5" stroke="white" stroke-opacity="0.4" stroke-width="3" stroke-linejoin="round"/>
<g filter="url(#filter0_d_432_6127)">
<rect width="132" height="208" rx="8" fill="url(#paint0_linear_432_6127)" fill-opacity="0.3" shape-rendering="crispEdges"/>
</g>
<path d="M29.2244 107.222C29.5884 107.381 29.7704 107.595 29.7704 107.866C29.7704 108.034 29.6864 108.197 29.5184 108.356C29.3504 108.515 29.1591 108.627 28.9444 108.692C28.4311 108.748 28.0671 108.781 27.8524 108.79C26.6017 108.893 25.7197 108.991 25.2064 109.084C25.1224 109.14 24.9451 109.168 24.6744 109.168C24.4131 109.168 24.1797 109.047 23.9744 108.804C23.7784 108.561 23.6804 108.309 23.6804 108.048C23.6804 107.945 23.6944 107.847 23.7224 107.754L25.5144 100.67C25.6171 100.259 25.7244 99.9887 25.8364 99.858C25.9577 99.718 26.1724 99.648 26.4804 99.648C26.7324 99.648 26.9471 99.676 27.1244 99.732C27.3111 99.788 27.4091 99.872 27.4184 99.984C27.4184 100.245 26.8164 102.784 25.6124 107.6C26.4337 107.46 27.4791 107.348 28.7484 107.264L29.2244 107.222ZM35.6912 108.958C35.6539 109.117 35.5699 109.224 35.4392 109.28C35.3085 109.345 35.1359 109.378 34.9212 109.378C34.2772 109.378 33.9552 109.233 33.9552 108.944L34.0392 108.412C33.7779 108.608 33.4699 108.804 33.1152 109C32.7605 109.196 32.4665 109.294 32.2332 109.294C30.8519 109.294 30.1612 108.841 30.1612 107.936C30.1612 106.396 30.6232 104.725 31.5472 102.924C31.6592 102.709 31.7759 102.555 31.8972 102.462C32.0279 102.369 32.2472 102.322 32.5552 102.322C32.8819 102.322 33.1245 102.369 33.2832 102.462C33.4512 102.546 33.5352 102.649 33.5352 102.77C33.5352 102.798 33.4839 102.882 33.3812 103.022C33.2785 103.143 33.1899 103.265 33.1152 103.386C32.2379 104.851 31.7992 106.279 31.7992 107.67C31.7992 107.791 31.8459 107.899 31.9392 107.992C32.0325 108.085 32.1165 108.132 32.1912 108.132C32.3965 108.132 32.7419 108.034 33.2272 107.838C33.7219 107.642 34.0999 107.441 34.3612 107.236L34.6412 106.102C34.9772 104.749 35.1872 103.918 35.2712 103.61C35.3739 103.237 35.5045 102.933 35.6632 102.7C35.8312 102.457 36.0925 102.336 36.4472 102.336C36.9419 102.336 37.1892 102.485 37.1892 102.784C37.1892 102.831 37.1752 102.891 37.1472 102.966C37.1285 103.031 37.1145 103.087 37.1052 103.134L36.5452 105.402C36.0972 107.203 35.8125 108.389 35.6912 108.958ZM39.1371 112.178C38.7077 112.178 38.3017 112.085 37.9191 111.898C37.5457 111.711 37.2331 111.469 36.9811 111.17C36.7197 110.881 36.5331 110.587 36.4211 110.288C36.4304 110.12 36.5144 109.952 36.6731 109.784C36.8224 109.625 37.0884 109.546 37.4711 109.546C37.5924 109.546 37.6951 109.593 37.7791 109.686C37.8724 109.779 37.9751 109.929 38.0871 110.134C38.2364 110.414 38.3904 110.629 38.5491 110.778C38.7171 110.937 38.9457 111.016 39.2351 111.016C39.5617 111.016 39.8744 110.885 40.1731 110.624C40.4811 110.372 40.7424 110.027 40.9571 109.588C41.1811 109.149 41.3351 108.664 41.4191 108.132C41.2137 108.412 40.9757 108.627 40.7051 108.776C40.4437 108.925 40.1964 109 39.9631 109C39.2164 109 38.6237 108.837 38.1851 108.51C37.7557 108.174 37.5411 107.581 37.5411 106.732C37.5411 105.967 37.7511 105.253 38.1711 104.59C38.6004 103.927 39.1697 103.4 39.8791 103.008C40.5884 102.616 41.3491 102.42 42.1611 102.42C42.6931 102.42 43.0851 102.527 43.3371 102.742C43.5984 102.957 43.7571 103.227 43.8131 103.554C43.9717 103.629 44.0557 103.703 44.0651 103.778C44.0651 103.806 44.0464 103.904 44.0091 104.072C43.8317 104.837 43.4584 106.349 42.8891 108.608L42.7351 109.224C42.5017 110.129 42.0537 110.848 41.3911 111.38C40.7377 111.912 39.9864 112.178 39.1371 112.178ZM42.3011 103.862C42.2264 103.731 42.1517 103.647 42.0771 103.61C42.0117 103.573 41.9091 103.554 41.7691 103.554C41.3304 103.554 40.9057 103.699 40.4951 103.988C40.0844 104.268 39.7531 104.637 39.5011 105.094C39.2491 105.542 39.1231 106.004 39.1231 106.48C39.1231 106.825 39.1837 107.124 39.3051 107.376C39.4357 107.628 39.6411 107.773 39.9211 107.81C40.2944 107.745 40.6444 107.577 40.9711 107.306C41.3071 107.035 41.5357 106.685 41.6571 106.256L42.3011 103.862ZM48.3754 108.538C47.6754 109.005 47.0081 109.238 46.3734 109.238C46.1307 109.238 45.8554 109.159 45.5474 109C45.2487 108.841 44.9921 108.627 44.7774 108.356C44.5627 108.085 44.4554 107.787 44.4554 107.46C44.4554 106.937 44.6281 106.27 44.9734 105.458C45.3187 104.646 45.8041 103.937 46.4294 103.33C47.0641 102.723 47.8014 102.42 48.6414 102.42C49.3507 102.42 49.9434 102.537 50.4194 102.77C50.8954 103.003 51.1334 103.339 51.1334 103.778C51.1334 103.806 51.1147 103.904 51.0774 104.072C50.6014 106.135 50.1767 107.852 49.8034 109.224C49.5887 110.027 49.2901 110.643 48.9074 111.072C48.5341 111.511 48.1094 111.805 47.6334 111.954C47.1667 112.103 46.6161 112.178 45.9814 112.178C45.5241 112.178 45.1087 112.057 44.7354 111.814C44.3714 111.571 44.1894 111.226 44.1894 110.778C44.1894 110.461 44.3901 110.302 44.7914 110.302C44.8847 110.302 44.9921 110.372 45.1134 110.512C45.2627 110.671 45.4167 110.792 45.5754 110.876C45.7434 110.969 45.9861 111.016 46.3034 111.016C46.8167 111.016 47.2601 110.801 47.6334 110.372C48.0067 109.943 48.2541 109.331 48.3754 108.538ZM48.6694 107.222C48.7441 106.811 48.8701 106.326 49.0474 105.766C49.2341 105.197 49.4814 104.627 49.7894 104.058C49.7427 103.871 49.5934 103.75 49.3414 103.694C49.0987 103.629 48.8794 103.596 48.6834 103.596C48.3381 103.596 47.9647 103.829 47.5634 104.296C47.1621 104.763 46.8167 105.309 46.5274 105.934C46.2474 106.55 46.1074 107.049 46.1074 107.432C46.1074 107.619 46.1587 107.754 46.2614 107.838C46.3641 107.913 46.4947 107.95 46.6534 107.95C46.8681 107.95 47.2087 107.871 47.6754 107.712C48.1514 107.544 48.4827 107.381 48.6694 107.222ZM57.3198 108.762C57.2544 108.93 57.1004 109.042 56.8578 109.098C56.6244 109.163 56.4191 109.196 56.2418 109.196C56.0738 109.196 55.9618 109.154 55.9058 109.07C55.8591 108.995 55.8171 108.879 55.7798 108.72C55.7424 108.561 55.7191 108.454 55.7098 108.398C55.3084 108.669 54.8978 108.874 54.4778 109.014C54.0671 109.163 53.7218 109.238 53.4418 109.238C53.1991 109.238 52.9238 109.159 52.6158 109C52.3171 108.841 52.0604 108.627 51.8458 108.356C51.6311 108.085 51.5238 107.787 51.5238 107.46C51.5238 106.937 51.6964 106.27 52.0418 105.458C52.3871 104.646 52.8724 103.937 53.4978 103.33C54.1324 102.723 54.8698 102.42 55.7098 102.42C56.4471 102.42 57.1051 102.537 57.6838 102.77C58.2624 103.003 58.5518 103.335 58.5518 103.764C58.2904 104.249 58.0058 104.977 57.6978 105.948C57.3991 106.919 57.2498 107.637 57.2498 108.104C57.2498 108.412 57.2731 108.631 57.3198 108.762ZM55.7378 107.222C55.8124 106.811 55.9384 106.326 56.1158 105.766C56.3024 105.197 56.5498 104.627 56.8578 104.058C56.8111 103.871 56.6618 103.75 56.4098 103.694C56.1671 103.629 55.9478 103.596 55.7518 103.596C55.4064 103.596 55.0331 103.829 54.6318 104.296C54.2304 104.763 53.8851 105.309 53.5958 105.934C53.3158 106.55 53.1758 107.049 53.1758 107.432C53.1758 107.619 53.2271 107.754 53.3298 107.838C53.4324 107.913 53.5631 107.95 53.7218 107.95C53.9364 107.95 54.2771 107.871 54.7438 107.712C55.2198 107.544 55.5511 107.381 55.7378 107.222ZM62.4711 108.538C61.7805 109.005 61.1225 109.238 60.4971 109.238C60.1145 109.238 59.7738 109.117 59.4751 108.874C59.1765 108.622 58.9431 108.309 58.7751 107.936C58.6165 107.553 58.5371 107.185 58.5371 106.83C58.5371 106.317 58.6911 105.733 58.9991 105.08C59.3071 104.417 59.7645 103.853 60.3711 103.386C60.9778 102.91 61.7011 102.672 62.5411 102.672C63.1478 102.672 63.7125 102.779 64.2351 102.994C64.7671 103.199 65.0331 103.549 65.0331 104.044C65.0331 104.165 65.0238 104.259 65.0051 104.324C64.8745 104.931 64.7625 105.467 64.6691 105.934C64.3611 107.381 64.1138 108.477 63.9271 109.224C63.7218 110.027 63.4325 110.643 63.0591 111.072C62.6951 111.511 62.2751 111.805 61.7991 111.954C61.3325 112.103 60.7818 112.178 60.1471 112.178C59.9045 112.178 59.6338 112.122 59.3351 112.01C59.0458 111.907 58.7985 111.763 58.5931 111.576C58.3878 111.389 58.2851 111.189 58.2851 110.974C58.2851 110.769 58.3411 110.605 58.4531 110.484C58.5558 110.363 58.7145 110.302 58.9291 110.302C59.0225 110.302 59.1298 110.372 59.2511 110.512C59.4005 110.671 59.5545 110.792 59.7131 110.876C59.8811 110.969 60.1238 111.016 60.4411 111.016C60.9545 111.016 61.3931 110.801 61.7571 110.372C62.1211 109.943 62.3591 109.331 62.4711 108.538ZM62.7511 107.222C62.7791 107.045 62.8958 106.555 63.1011 105.752C63.1478 105.584 63.2085 105.36 63.2831 105.08C63.3578 104.791 63.4185 104.539 63.4651 104.324C63.4185 104.137 63.3018 104.011 63.1151 103.946C62.9378 103.881 62.7698 103.848 62.6111 103.848C62.2378 103.848 61.8598 104.011 61.4771 104.338C61.1038 104.665 60.7958 105.066 60.5531 105.542C60.3105 106.009 60.1891 106.429 60.1891 106.802C60.1891 107.017 60.2498 107.264 60.3711 107.544C60.4925 107.815 60.6185 107.95 60.7491 107.95C60.9638 107.95 61.3045 107.871 61.7711 107.712C62.2378 107.544 62.5645 107.381 62.7511 107.222ZM68.4335 109.294C67.5095 109.294 66.8328 109.112 66.4035 108.748C65.9835 108.384 65.7735 107.899 65.7735 107.292C65.7735 106.387 65.9601 105.565 66.3335 104.828C66.7068 104.081 67.2248 103.498 67.8875 103.078C68.5501 102.649 69.3061 102.434 70.1555 102.434C70.6875 102.434 71.1308 102.583 71.4855 102.882C71.8495 103.181 72.0315 103.624 72.0315 104.212C72.0315 104.837 71.8261 105.327 71.4155 105.682C71.0141 106.037 70.4868 106.293 69.8335 106.452C69.1895 106.601 68.3775 106.723 67.3975 106.816C67.3695 106.937 67.3555 107.082 67.3555 107.25C67.3555 107.511 67.4675 107.712 67.6915 107.852C67.9155 107.992 68.2281 108.062 68.6295 108.062C68.9188 108.062 69.2548 108.001 69.6375 107.88C70.0295 107.759 70.3281 107.558 70.5335 107.278C70.6548 107.119 70.7948 106.993 70.9535 106.9C71.1215 106.807 71.2848 106.76 71.4435 106.76C71.5928 106.76 71.7141 106.811 71.8075 106.914C71.9101 107.007 71.9615 107.152 71.9615 107.348C71.8588 107.647 71.6441 107.95 71.3175 108.258C70.9908 108.557 70.5755 108.804 70.0715 109C69.5768 109.196 69.0308 109.294 68.4335 109.294ZM67.7615 105.528C68.3588 105.519 68.9701 105.407 69.5955 105.192C70.2208 104.968 70.5335 104.581 70.5335 104.03C70.5335 103.899 70.4728 103.801 70.3515 103.736C70.2301 103.661 70.0995 103.624 69.9595 103.624C69.6888 103.624 69.4041 103.727 69.1055 103.932C68.8161 104.128 68.5501 104.375 68.3075 104.674C68.0648 104.963 67.8828 105.248 67.7615 105.528ZM82.7161 103.89C83.0988 103.89 83.3788 103.96 83.5561 104.1C83.7428 104.231 83.8594 104.394 83.9061 104.59C83.9528 104.777 83.9761 105.019 83.9761 105.318C83.9761 106.102 83.7614 106.797 83.3321 107.404C82.9028 108.001 82.3428 108.468 81.6521 108.804C80.9614 109.131 80.2288 109.294 79.4541 109.294C78.3341 109.294 77.5128 108.981 76.9901 108.356C76.4674 107.731 76.2061 106.965 76.2061 106.06C76.2061 104.987 76.4908 103.965 77.0601 102.994C77.6388 102.014 78.3481 101.23 79.1881 100.642C80.0374 100.045 80.8354 99.746 81.5821 99.746C82.6274 99.746 83.3834 99.956 83.8501 100.376C84.3168 100.787 84.5501 101.389 84.5501 102.182C84.5501 102.462 84.4428 102.7 84.2281 102.896C84.0228 103.092 83.7428 103.19 83.3881 103.19C83.1081 103.19 82.9168 103.115 82.8141 102.966C82.7208 102.817 82.6741 102.625 82.6741 102.392L82.6881 101.944C82.6881 101.776 82.5948 101.613 82.4081 101.454C82.2214 101.295 82.0488 101.216 81.8901 101.216C81.3674 101.216 80.7934 101.454 80.1681 101.93C79.5428 102.397 79.0154 103.031 78.5861 103.834C78.1568 104.627 77.9421 105.491 77.9421 106.424C77.9421 106.853 78.1101 107.203 78.4461 107.474C78.7821 107.745 79.2068 107.88 79.7201 107.88C80.0841 107.88 80.4668 107.773 80.8681 107.558C81.2694 107.334 81.6054 107.035 81.8761 106.662C82.1561 106.279 82.2961 105.873 82.2961 105.444C82.1654 105.463 81.9741 105.505 81.7221 105.57C81.3581 105.663 81.0454 105.733 80.7841 105.78C80.5321 105.827 80.2801 105.85 80.0281 105.85C79.7294 105.85 79.5054 105.813 79.3561 105.738C79.2161 105.654 79.1461 105.509 79.1461 105.304C79.1461 105.164 79.1788 105.001 79.2441 104.814C79.3188 104.627 79.4074 104.492 79.5101 104.408C79.9768 104.287 80.5134 104.17 81.1201 104.058C81.7361 103.946 82.2681 103.89 82.7161 103.89ZM90.3048 108.272C90.3234 108.515 90.3561 108.734 90.4028 108.93C90.3841 108.986 90.3001 109.042 90.1508 109.098C90.0108 109.154 89.8894 109.182 89.7868 109.182C89.4508 109.182 89.2081 109.131 89.0588 109.028C88.9188 108.935 88.8488 108.79 88.8488 108.594C88.8488 108.407 88.8674 108.221 88.9048 108.034C88.6994 108.314 88.3961 108.547 87.9948 108.734C87.6028 108.911 87.2854 109 87.0428 109C86.4174 109 85.8948 108.818 85.4748 108.454C85.0641 108.09 84.8588 107.507 84.8588 106.704C84.8588 105.948 85.0361 105.239 85.3908 104.576C85.7548 103.904 86.2541 103.367 86.8888 102.966C87.5234 102.555 88.2281 102.35 89.0028 102.35C89.1521 102.35 89.3481 102.392 89.5908 102.476C89.8334 102.551 90.0761 102.686 90.3188 102.882C90.5708 103.069 90.7808 103.311 90.9488 103.61C91.0234 103.61 91.1121 103.647 91.2148 103.722C91.3174 103.797 91.3688 103.871 91.3688 103.946C91.3688 104.03 91.3548 104.114 91.3268 104.198L90.3048 108.272ZM89.6748 104.352C89.6188 104.147 89.5068 103.974 89.3388 103.834C89.1801 103.694 89.0354 103.624 88.9048 103.624C88.4754 103.624 88.0694 103.778 87.6868 104.086C87.3134 104.385 87.0101 104.758 86.7768 105.206C86.5434 105.654 86.4268 106.079 86.4268 106.48C86.4268 106.872 86.4734 107.194 86.5668 107.446C86.6601 107.698 86.8421 107.824 87.1128 107.824C87.3461 107.824 87.6121 107.754 87.9108 107.614C88.2188 107.474 88.4894 107.287 88.7228 107.054C88.9654 106.811 89.1241 106.559 89.1988 106.298L89.6748 104.352ZM92.7681 102.602C92.7401 102.574 92.7261 102.541 92.7261 102.504C92.7261 102.411 92.8288 102.336 93.0341 102.28C93.2394 102.215 93.5241 102.182 93.8881 102.182C94.2148 102.182 94.4341 102.275 94.5461 102.462C94.6581 102.639 94.7281 102.873 94.7561 103.162C94.7374 103.237 94.7188 103.339 94.7001 103.47L94.6301 103.806C94.9008 103.489 95.3021 103.181 95.8341 102.882C96.3661 102.574 96.7814 102.42 97.0801 102.42C97.5468 102.42 97.8688 102.504 98.0461 102.672C98.2328 102.831 98.3401 103.139 98.3681 103.596C98.7134 103.269 99.1101 102.994 99.5581 102.77C100.006 102.537 100.398 102.42 100.734 102.42C101.089 102.42 101.415 102.495 101.714 102.644C102.013 102.784 102.162 103.013 102.162 103.33C102.162 103.414 102.157 103.479 102.148 103.526C102.12 103.675 102.064 103.885 101.98 104.156C101.905 104.417 101.849 104.609 101.812 104.73C101.579 105.486 101.397 106.125 101.266 106.648C101.145 107.161 101.07 107.665 101.042 108.16L101.238 108.846C101.126 109.061 100.967 109.229 100.762 109.35C100.566 109.481 100.277 109.546 99.8941 109.546C99.6701 109.546 99.5068 109.471 99.4041 109.322C99.3014 109.173 99.2501 108.986 99.2501 108.762C99.2501 108.715 99.2548 108.664 99.2641 108.608C99.2734 108.552 99.2781 108.501 99.2781 108.454C99.2968 107.931 99.3714 107.404 99.5021 106.872C99.6421 106.331 99.8194 105.724 100.034 105.052C100.23 104.464 100.328 104.105 100.328 103.974C100.328 103.918 100.319 103.862 100.3 103.806C100.291 103.741 100.277 103.708 100.258 103.708C100.043 103.708 99.6888 103.811 99.1941 104.016C98.7088 104.221 98.3821 104.427 98.2141 104.632C98.0368 105.201 97.7428 106.387 97.3321 108.188L97.2481 108.58C97.2014 108.823 97.1548 108.991 97.1081 109.084C97.0708 109.177 96.9914 109.247 96.8701 109.294C96.7488 109.341 96.5528 109.364 96.2821 109.364C95.6381 109.364 95.3161 109.233 95.3161 108.972C95.3908 108.767 95.5961 107.978 95.9321 106.606C96.1374 105.757 96.3708 104.819 96.6321 103.792C96.5761 103.82 96.4734 103.862 96.3241 103.918C95.8761 104.095 95.4841 104.277 95.1481 104.464C94.8214 104.651 94.5554 104.87 94.3501 105.122L93.9861 106.606C93.9301 106.83 93.8788 107.04 93.8321 107.236C93.7854 107.423 93.7434 107.581 93.7061 107.712C93.6594 107.871 93.6268 108.085 93.6081 108.356C93.5894 108.543 93.5614 108.678 93.5241 108.762C93.4961 108.846 93.4168 108.916 93.2861 108.972C93.1648 109.019 92.9688 109.042 92.6981 109.042C92.3901 109.042 92.1568 109.009 91.9981 108.944C91.8394 108.879 91.7601 108.739 91.7601 108.524C91.7601 108.421 91.8768 107.875 92.1101 106.886C92.3528 105.897 92.6794 104.609 93.0901 103.022L92.7681 102.602ZM105.278 109.294C104.364 109.294 103.696 109.112 103.276 108.748C102.856 108.384 102.646 107.899 102.646 107.292C102.646 106.405 102.866 105.584 103.304 104.828C103.752 104.072 104.345 103.475 105.082 103.036C105.829 102.588 106.632 102.364 107.49 102.364C108.013 102.364 108.452 102.513 108.806 102.812C109.161 103.101 109.338 103.531 109.338 104.1C109.338 104.735 109.1 105.239 108.624 105.612C108.158 105.976 107.565 106.247 106.846 106.424C106.137 106.592 105.283 106.723 104.284 106.816C104.247 106.956 104.228 107.101 104.228 107.25C104.228 107.511 104.336 107.712 104.55 107.852C104.774 107.992 105.087 108.062 105.488 108.062C105.787 108.062 106.128 108.001 106.51 107.88C106.902 107.759 107.201 107.558 107.406 107.278C107.518 107.119 107.658 106.993 107.826 106.9C108.004 106.807 108.172 106.76 108.33 106.76C108.48 106.76 108.601 106.811 108.694 106.914C108.788 107.007 108.834 107.152 108.834 107.348C108.722 107.647 108.503 107.95 108.176 108.258C107.85 108.557 107.434 108.804 106.93 109C106.426 109.196 105.876 109.294 105.278 109.294ZM104.676 105.528C105.003 105.519 105.414 105.467 105.908 105.374C106.403 105.281 106.851 105.117 107.252 104.884C107.654 104.641 107.854 104.324 107.854 103.932C107.854 103.82 107.794 103.731 107.672 103.666C107.551 103.591 107.42 103.554 107.28 103.554C107 103.554 106.678 103.661 106.314 103.876C105.96 104.091 105.628 104.352 105.32 104.66C105.012 104.968 104.798 105.257 104.676 105.528Z" fill="white" fill-opacity="0.8"/>
<line x1="41" y1="118.5" x2="91" y2="118.5" stroke="#FFFBF4" stroke-opacity="0.5"/>
<line x1="42" y1="95.5" x2="92" y2="95.5" stroke="#FFFBF4" stroke-opacity="0.5"/>
<line x1="47" y1="122.5" x2="86" y2="122.5" stroke="#FFFBF4" stroke-opacity="0.5"/>
<line x1="47" y1="91.5" x2="86" y2="91.5" stroke="#FFFBF4" stroke-opacity="0.5"/>
<defs>
<filter id="filter0_d_432_6127" x="-12" y="-12" width="156" height="232" filterUnits="userSpaceOnUse" color-interpolation-filters="sRGB">
<feFlood flood-opacity="0" result="BackgroundImageFix"/>
<feColorMatrix in="SourceAlpha" type="matrix" values="0 0 0 0 0 0 0 0 0 0 0 0 0 0 0 0 0 0 127 0" result="hardAlpha"/>
<feOffset/>
<feGaussianBlur stdDeviation="6"/>
<feComposite in2="hardAlpha" operator="out"/>
<feColorMatrix type="matrix" values="0 0 0 0 0 0 0 0 0 0 0 0 0 0 0 0 0 0 0.5 0"/>
<feBlend mode="normal" in2="BackgroundImageFix" result="effect1_dropShadow_432_6127"/>
<feBlend mode="normal" in="SourceGraphic" in2="effect1_dropShadow_432_6127" result="shape"/>
</filter>
<linearGradient id="paint0_linear_432_6127" x1="66" y1="0" x2="66" y2="208" gradientUnits="userSpaceOnUse">
<stop stop-color="#D79262"/>
<stop offset="0.645833" stop-color="#575AC1"/>
<stop offset="1" stop-color="#1E88E5"/>
</linearGradient>
</defs>
</svg>
